<?xml version="1.0" encoding="UTF-8" standalone="no"?>
<!-- Created with Inkscape (http://www.inkscape.org/) -->

<svg
   xmlns:dc="http://purl.org/dc/elements/1.1/"
   xmlns:cc="http://creativecommons.org/ns#"
   xmlns:rdf="http://www.w3.org/1999/02/22-rdf-syntax-ns#"
   xmlns:svg="http://www.w3.org/2000/svg"
   xmlns="http://www.w3.org/2000/svg"
   xmlns:sodipodi="http://sodipodi.sourceforge.net/DTD/sodipodi-0.dtd"
   xmlns:inkscape="http://www.inkscape.org/namespaces/inkscape"
   width="210mm"
   height="297mm"
   viewBox="0 0 210 297"
   version="1.1"
   id="svg8"
   inkscape:version="0.92.1 r15371"
   sodipodi:docname="thumbnail.svg"
   inkscape:export-filename="C:\Users\Scott\Documents\Python Things\Earnings Calls\Earnings Calls.png"
   inkscape:export-xdpi="96"
   inkscape:export-ydpi="96">
  <defs
     id="defs2" />
  <sodipodi:namedview
     id="base"
     pagecolor="#ffffff"
     bordercolor="#666666"
     borderopacity="1.0"
     inkscape:pageopacity="0.0"
     inkscape:pageshadow="2"
     inkscape:zoom="0.5714748"
     inkscape:cx="-1589.9322"
     inkscape:cy="472.85401"
     inkscape:document-units="mm"
     inkscape:current-layer="layer1"
     showgrid="false"
     inkscape:snap-global="false"
     inkscape:window-width="1920"
     inkscape:window-height="1018"
     inkscape:window-x="-8"
     inkscape:window-y="-8"
     inkscape:window-maximized="1" />
  <metadata
     id="metadata5">
    <rdf:RDF>
      <cc:Work
         rdf:about="">
        <dc:format>image/svg+xml</dc:format>
        <dc:type
           rdf:resource="http://purl.org/dc/dcmitype/StillImage" />
        <dc:title />
      </cc:Work>
    </rdf:RDF>
  </metadata>
  <g
     inkscape:label="Layer 1"
     inkscape:groupmode="layer"
     id="layer1">
    <rect
       style="opacity:1;vector-effect:none;fill:#f6f6f6;fill-opacity:1;stroke:none;stroke-width:2;stroke-linecap:square;stroke-linejoin:miter;stroke-miterlimit:4;stroke-dasharray:none;stroke-dashoffset:0;stroke-opacity:1;paint-order:fill markers stroke"
       id="rect4854"
       width="338.66666"
       height="190.5"
       x="-432.74683"
       y="59.820255"
       inkscape:export-xdpi="96"
       inkscape:export-ydpi="96" />
    <path
       style="fill:#ff5353;fill-opacity:1;stroke-width:1"
       d="m -262.87827,86.684352 c -5.05925,-0.0056 -10.33894,0.199917 -13.56565,0.583279 -0.34981,0.04151 -1.56594,0.153999 -2.70285,0.250398 -3.94625,0.334591 -12.43103,1.464302 -16.70618,2.224379 -1.04397,0.18555 -2.25588,0.397448 -2.69315,0.470692 -0.8479,0.141979 -2.55603,0.469865 -5.00874,0.961778 -2.22117,0.445488 -8.32208,1.848434 -9.69917,2.230201 -0.65591,0.181793 -1.62204,0.427928 -2.14676,0.547371 -3.54064,0.805732 -12.68812,3.941502 -16.21803,5.559013 -3.58421,1.642357 -6.02006,2.958217 -8.05224,4.351717 -6.53341,4.48007 -8.04725,6.06295 -10.82883,11.31896 -2.48535,4.6963 -3.619,9.02922 -3.619,13.83738 0,1.72052 0.0847,2.29201 0.88025,5.91811 1.60191,7.30181 2.98925,12.05646 4.1848,14.34594 0.92264,1.76689 1.93926,2.25219 4.39636,2.09725 2.42849,-0.15306 5.27562,-1.11174 9.0635,-3.05126 2.28029,-1.16759 2.89119,-1.4944 5.82203,-3.11045 1.83223,-1.01029 3.84199,-1.98016 6.57999,-3.17449 9.59545,-4.18565 15.29834,-8.31618 17.47094,-12.65533 0.72518,-1.44815 0.96049,-2.72786 0.85307,-4.63996 -0.12376,-2.20217 -0.68573,-3.61291 -2.40199,-6.02777 -0.44877,-0.63144 -1.08125,-1.52587 -1.40528,-1.9876 -0.98791,-1.40785 -0.96103,-2.84082 0.0699,-3.70827 l 0.49302,-0.41538 c 0.85307,-0.42119 -0.49302,0.41538 0.0893,-0.0729 l 0.76378,-0.34839 c 1.33243,-0.60837 2.59637,-0.8448 5.01652,-0.93945 l 2.3457,-0.0922 v 0.46682 c -1e-5,0.25684 -0.10643,1.32319 -0.23583,2.36899 -0.12946,1.04582 -0.31478,2.54561 -0.4115,3.3327 -0.0968,0.78708 -0.41386,2.64761 -0.70458,4.13432 -0.57594,2.94546 -0.79692,3.93068 -3.43169,15.26402 -0.97588,4.19778 -1.8647,8.06227 -1.974,8.58699 -0.10937,0.52472 -0.56334,2.45106 -1.00932,4.28088 -0.94035,3.85815 -0.46911,3.14405 -4.5565,6.90413 -1.48673,1.36766 -2.73866,2.5253 -2.78242,2.57281 -0.0438,0.0475 -1.25883,1.12136 -2.69994,2.38646 -11.2364,9.86412 -15.95347,16.20868 -17.87855,24.04608 -0.7334,2.98596 -0.888,4.79986 -0.888,10.44257 v 5.17665 c 0,0.16207 0.0947,1.9851 0,0.16207 l 0.008,5.64347 c 0.009,7.48199 0.13127,9.35687 0.68129,10.55808 0.56345,1.23076 1.9352,2.5427 3.53455,3.37927 1.30614,0.68319 3.80704,1.56029 4.91947,1.72556 0.34982,0.052 0.92606,0.1677 1.28009,0.25717 0.35402,0.0894 1.49844,0.25596 2.54368,0.36977 v 9.6e-4 c 1.96284,0.21372 7.96515,0.32465 8.64715,0.16019 0.50274,-0.15231 -2.3617,0.16583 0.50274,-0.15231 l 0.987,-0.0252 c 2.32913,-0.0593 6.87498,-1.00976 8.67335,-1.81386 2.31781,-1.03637 3.87705,-3.39432 4.11395,-6.21993 l 0.0912,-1.08406 h 37.10513 37.10416 v 0.76184 c 0,1.72806 0.91537,3.90838 2.19139,5.22129 1.23693,1.27269 3.59246,2.15125 7.39813,2.75817 6.86097,1.09415 14.69271,0.74622 19.58857,-0.86956 2.94567,-0.97215 5.24492,-2.66809 6.0763,-4.48178 0.58245,-1.27067 0.65747,-3.04833 0.67062,-16.03653 0.0122,-11.72758 -0.0472,-12.69778 -1.00544,-16.34033 -0.52123,-1.98127 -1.6822,-4.97422 -2.47866,-6.39172 -1.68527,-2.9994 -2.90997,-4.74207 -5.21838,-7.42237 -2.5076,-2.91159 -8.30297,-8.51487 -8.61027,-8.32495 -0.0905,0.0558 -0.13426,0.008 -0.098,-0.10573 0.0363,-0.114 -0.66121,-0.83178 -1.55182,-1.59745 -0.88989,-0.76502 -1.83295,-1.58771 -2.09531,-1.82842 -3.80202,-3.48826 -5.97894,-5.51473 -6.40725,-5.96275 -0.46393,-0.48529 -0.59559,-0.84209 -1.13257,-3.07746 -1.24177,-5.16913 -1.76146,-7.40557 -1.76146,-7.57572 0,-0.0961 -0.12547,-0.31799 -0.27853,-0.49302 -0.16978,-0.19456 -0.19025,-0.26552 -0.0524,-0.18442 0.17485,0.10291 0.19941,0.064 0.1087,-0.17184 -0.11118,-0.28911 -0.19224,-0.63617 -0.79386,-3.37541 -0.14046,-0.63943 -0.57851,-2.53583 -0.97342,-4.21391 -1.43889,-6.11407 -1.66075,-7.0928 -2.44857,-10.84242 -0.441,-2.09889 -0.87754,-4.35188 -0.9705,-5.00778 -0.20963,-1.47837 -0.78908,-6.65081 -0.79095,-7.05845 -0.001,-0.28449 0.11938,-0.29448 2.34375,-0.20865 3.44179,0.13278 5.78196,0.8839 6.62755,2.1283 0.3347,0.49255 0.36457,0.50408 0.64926,0.2436 0.28304,-0.25983 0.28711,-0.25898 0.0844,0.009 -0.11749,0.15569 -0.22572,0.6916 -0.24263,1.19176 -0.0314,0.96613 -0.39293,1.76467 -1.20342,2.65918 -0.85259,0.94097 -2.22234,3.17145 -2.68537,4.3721 -0.47997,1.24459 -0.82409,3.24377 -0.7007,4.07319 0.36349,2.44516 0.84092,3.67895 2.03999,5.26399 2.91474,3.85301 7.70441,7.00901 16.61788,10.95015 2.82627,1.24966 4.94443,2.30681 8.39579,4.19062 4.51199,2.34659 0.047,0.009 4.49536,2.37385 4.20349,1.9962 6.35789,2.64221 8.81408,2.64364 1.37921,7.8e-4 1.69511,-0.0522 2.38451,-0.39693 0.43716,-0.21864 0.94834,-0.63011 1.13646,-0.91422 1.28257,-1.93719 3.35666,-8.96937 4.93209,-16.72559 0.54571,-2.68681 0.56356,-2.88289 0.4736,-5.17762 -0.18518,-4.726 -1.08359,-8.11596 -3.28611,-12.403 -1.68451,-3.27872 -2.68368,-4.78536 -4.36337,-6.57707 -1.50551,-1.60591 -5.00229,-4.27901 -8.03575,-6.14327 -2.74359,-1.68616 -8.24516,-4.280415 -11.28885,-5.323193 -0.56844,-0.194752 -1.17706,-0.418801 -1.35191,-0.497866 -0.54802,-0.247863 -4.0504,-1.407435 -6.04233,-2.000198 -6.2525,-1.860642 -15.40677,-4.016473 -21.1472,-4.980617 -0.43726,-0.07343 -1.83266,-0.314646 -3.10075,-0.535709 -4.32124,-0.753335 -12.43324,-1.826086 -16.37816,-2.16616 -1.00572,-0.08658 -2.07843,-0.193419 -2.38452,-0.236801 -0.3061,-0.04338 -2.27418,-0.197194 -4.37307,-0.341614 -2.38525,-0.164141 -5.34181,-0.244595 -8.37735,-0.248464 z m 10.36882,24.360538 c 0.0148,2e-5 0.0945,0.0657 0.25039,0.19798 0.29648,0.25174 0.78983,0.2787 5.165,0.27951 2.74582,3.8e-4 5.11162,0.0704 5.47265,0.16208 0.64221,0.16301 1.82757,0.51214 1.82939,0.53862 5.5e-4,0.008 0.14345,1.19484 0.31736,2.63782 0.56801,4.71512 0.41528,6.74066 -0.658,8.74517 -1.1272,2.1052 -1.7574,2.40103 -5.46392,2.56309 -3.29213,0.14385 -32.57613,0.12733 -36.01526,-0.0205 -1.98556,-0.0853 -2.60622,-0.1694 -3.19391,-0.43283 -0.88215,-0.3954 -1.65395,-1.39431 -2.30688,-2.98431 -0.40518,-0.98642 -0.463,-1.34383 -0.51146,-3.14052 -0.0333,-1.23541 0.0456,-2.85046 0.20187,-4.13434 0.41796,-3.43411 0.35966,-3.21968 0.93071,-3.42296 1.37647,-0.49009 2.27007,-0.5145 18.17941,-0.51339 15.35829,0.001 16.14517,-0.0132 15.94046,-0.27756 -0.10237,-0.13221 -0.15257,-0.198 -0.13781,-0.19798 z"
       id="path4840"
       inkscape:connector-curvature="0"
       sodipodi:nodetypes="cccccccccscsccccccccccccccccccccccccsccscccccccccccccccccssccccccsccccccscccccccccccccccccccccccccccccccccccccccccccccccccccccccc"
       inkscape:export-xdpi="96"
       inkscape:export-ydpi="96" />
    <path
       style="color:#000000;font-style:normal;font-variant:normal;font-weight:normal;font-stretch:normal;font-size:medium;line-height:normal;font-family:sans-serif;font-variant-ligatures:normal;font-variant-position:normal;font-variant-caps:normal;font-variant-numeric:normal;font-variant-alternates:normal;font-feature-settings:normal;text-indent:0;text-align:start;text-decoration:none;text-decoration-line:none;text-decoration-style:solid;text-decoration-color:#000000;letter-spacing:normal;word-spacing:normal;text-transform:none;writing-mode:lr-tb;direction:ltr;text-orientation:mixed;dominant-baseline:auto;baseline-shift:baseline;text-anchor:start;white-space:normal;shape-padding:0;clip-rule:nonzero;display:inline;overflow:visible;visibility:visible;opacity:1;isolation:auto;mix-blend-mode:normal;color-interpolation:sRGB;color-interpolation-filters:linearRGB;solid-color:#000000;solid-opacity:1;vector-effect:none;fill:#2c1dca;fill-opacity:1;fill-rule:nonzero;stroke:none;stroke-width:1.99999988;stroke-linecap:butt;stroke-linejoin:miter;stroke-miterlimit:4;stroke-dasharray:none;stroke-dashoffset:0;stroke-opacity:1;color-rendering:auto;image-rendering:auto;shape-rendering:auto;text-rendering:auto;enable-background:accumulate"
       d="m -183.42359,105.01425 -28.6196,8.49639 8.7847,8.69095 -41.30332,40.8626 -0.37175,-16.95904 -42.77696,42.3205 -0.7368,-16.28224 c 0,0 -39.93822,39.83894 -44.46852,43.99403 -3.16032,2.89858 -0.62439,6.45467 2.91218,2.88109 4.05332,-4.09572 37.70314,-37.30082 37.70314,-37.30082 l 0.73678,16.28228 42.56957,-42.11537 0.37176,16.95909 48.2761,-47.76101 8.33396,8.24503 z"
       id="path4843"
       inkscape:connector-curvature="0"
       sodipodi:nodetypes="cccccccssccccccc"
       inkscape:export-xdpi="96"
       inkscape:export-ydpi="96" />
    <flowRoot
       xml:space="preserve"
       id="flowRoot4860"
       style="font-style:normal;font-weight:normal;font-size:16px;line-height:1.25;font-family:sans-serif;letter-spacing:0px;word-spacing:0px;fill:#000000;fill-opacity:1;stroke:none;stroke-width:0.72636473"
       transform="matrix(0.36425687,0,0,0.36425687,62.35137,-220.31813)"
       inkscape:export-xdpi="96"
       inkscape:export-ydpi="96"><flowRegion
         id="flowRegion4862"
         style="stroke-width:0.72636473"><rect
           id="rect4864"
           width="226.54691"
           height="180.90849"
           x="-618.70428"
           y="786.58258"
           style="stroke-width:0.72636473" /></flowRegion><flowPara
         id="flowPara4866"
         style="font-style:normal;font-variant:normal;font-weight:bold;font-stretch:normal;font-size:42.66666794px;font-family:'Trebuchet MS';-inkscape-font-specification:'Trebuchet MS Bold';stroke-width:0.72636473">Daily Earnings</flowPara><flowPara
         style="font-style:normal;font-variant:normal;font-weight:bold;font-stretch:normal;font-size:42.66666794px;font-family:'Trebuchet MS';-inkscape-font-specification:'Trebuchet MS Bold';stroke-width:0.72636473"
         id="flowPara14">Calls</flowPara></flowRoot>  </g>
</svg>
